<svg width="100" height="100" viewBox="0 0 100 100" fill="none" xmlns="http://www.w3.org/2000/svg">
<rect width="100" height="100" fill="black"/>
<rect x="24.5" y="24.5" width="51" height="51" stroke="black"/>
<path d="M71.1146 32.5045C70.3476 31.8389 66.159 28.0039 65.3764 27.3279C64.599 26.6545 63.4108 26.5999 62.5112 26.5999H37.4888C36.5918 26.5999 35.4036 26.6545 34.6236 27.3279C33.841 28.0039 29.6524 31.8415 28.8854 32.5045C28.1132 33.1701 27.4736 34.1763 27.679 35.6037C27.8844 37.0363 32.593 71.1223 32.7152 71.9335C32.7797 72.3366 32.9837 72.7042 33.2916 72.9722C33.5996 73.2402 33.9918 73.3916 34.4 73.3999H65.6C66.0085 73.3915 66.4011 73.2397 66.7091 72.9712C67.017 72.7027 67.2208 72.3344 67.2848 71.9309C67.407 71.1223 72.1156 37.0337 72.3236 35.6011C72.5264 34.1763 71.8868 33.1701 71.1146 32.5045ZM50 55.1297C41.5552 55.1297 39.7482 43.1801 39.3738 40.7179H44.15C44.8676 44.3085 46.5004 50.4523 50 50.4523C53.4996 50.4523 55.135 44.3085 55.85 40.7179H60.6288C60.2518 43.1801 58.4448 55.1297 50 55.1297ZM32.242 34.4155L37 29.1999H63L67.758 34.4155H32.242Z" fill="white"/>
</svg>
